# xmcd
#
# Track frame offsets: 
#        150
#        2210
#        19775
#        37705
#        51457
#        64747
#        85300
#        108335
#        118615
#        139695
#        157317
#        170482
#        185815
#        202127
#
# Disc length: 2805 seconds
#
# Revision: 1
# Processed by: cddbd v1.5.2PL0 Copyright (c) Steve Scherf et al.
# Submitted via: ExactAudioCopy v0.95a5
#
DISCID=c70af30e
DTITLE=Da Youngsta's - The Aftermath
DYEAR=1993
DGENRE=Hip-Hop
TTITLE0=The Aftermath
TTITLE1=Wild Child
TTITLE2=Iz U Wit Me
TTITLE3=Handle This
TTITLE4=Crewz Pop
TTITLE5=Lyrical Stick Up Kids
TTITLE6=Who's The Mic Wrecka
TTITLE7=Count It Off
TTITLE8=Honeycomb Hide Out
TTITLE9=Da Hood
TTITLE10=It'z Natural
TTITLE11=Rip A Rhyme
TTITLE12=Wake Em Up
TTITLE13=Shout It Out
EXTD=
EXTT0=
EXTT1=
EXTT2=
EXTT3=
EXTT4=
EXTT5=
EXTT6=
EXTT7=
EXTT8=
EXTT9=
EXTT10=
EXTT11=
EXTT12=
EXTT13=
PLAYORDER=
